<svg width="46" height="46" viewBox="0 0 46 46" fill="none" xmlns="http://www.w3.org/2000/svg">
<path d="M4.06055 40.0455V5.95459H22.5265V13.7671H41.9393V40.0455H4.06055ZM22.5265 37.2046H39.0984V16.608H22.5265V21.5796H26.3143V24.4205H22.5265V29.3921H26.3143V32.233H22.5265V37.2046Z" fill="#0040E7"/>
<path d="M31.2859 29.3921V32.233H34.1268V29.3921H31.2859Z" fill="#F2C500"/>
<path d="M31.2859 21.5796V24.4205H34.1268V21.5796H31.2859Z" fill="#F2C500"/>
<path d="M11.8732 13.767H6.90161V8.79541H11.8732V13.767Z" fill="#F2C500"/>
<path d="M19.6857 13.767H14.7141V8.79541H19.6857V13.767Z" fill="#F2C500"/>
<path d="M11.8732 21.5795H6.90161V16.6079H11.8732V21.5795Z" fill="#F2C500"/>
<path d="M19.6857 21.5795H14.7141V16.6079H19.6857V21.5795Z" fill="#F2C500"/>
<path d="M11.8732 37.2045H6.90161V32.2329H11.8732V37.2045Z" fill="#F2C500"/>
<path d="M11.8732 29.392H6.90161V24.4204H11.8732V29.392Z" fill="#F2C500"/>
<path d="M19.6857 37.2045H14.7141V32.2329H19.6857V37.2045Z" fill="#F2C500"/>
<path d="M19.6857 29.392H14.7141V24.4204H19.6857V29.392Z" fill="#F2C500"/>
</svg>
