<svg width="46" height="46" viewBox="0 0 46 46" fill="none" xmlns="http://www.w3.org/2000/svg">
<path d="M6.90146 41.9393C6.14388 41.9393 5.481 41.6552 4.91282 41.0871C4.34464 40.5189 4.06055 39.856 4.06055 39.0984V16.3712C4.06055 15.6136 4.34464 14.9507 4.91282 14.3825C5.481 13.8143 6.14388 13.5302 6.90146 13.5302H18.7386V6.90146C18.7386 6.14388 19.0227 5.481 19.5908 4.91282C20.159 4.34464 20.8284 4.06055 21.5989 4.06055H24.4009C25.1715 4.06055 25.8408 4.34464 26.409 4.91282C26.9772 5.481 27.2613 6.14388 27.2613 6.90146V13.5302H39.0984C39.856 13.5302 40.5189 13.8143 41.0871 14.3825C41.6552 14.9507 41.9393 15.6136 41.9393 16.3712V39.0984C41.9393 39.856 41.6552 40.5189 41.0871 41.0871C40.5189 41.6552 39.856 41.9393 39.0984 41.9393H6.90146ZM6.90146 39.0984H39.0984V16.3712H27.2613V17.7916C27.2613 18.6754 26.9772 19.3699 26.409 19.8749C25.8408 20.38 25.1715 20.6325 24.4009 20.6325H21.5989C20.8284 20.6325 20.159 20.38 19.5908 19.8749C19.0227 19.3699 18.7386 18.6754 18.7386 17.7916V16.3712H6.90146V39.0984Z" fill="#0040E7"/>
<path d="M35.216 25.5095H27.1667V23.1421H35.216V25.5095Z" fill="#F2C500"/>
<path d="M35.216 30.8599H27.1667V28.4924H35.216V30.8599Z" fill="#F2C500"/>
<path d="M22.5739 34.0321H11.2576V33.3692C11.2576 32.801 11.3996 32.296 11.6837 31.854C11.9678 31.4121 12.3466 31.1122 12.8201 30.9544C13.6723 30.6703 14.4378 30.4573 15.1165 30.3152C15.7951 30.1732 16.4343 30.1021 17.0341 30.1021C17.5707 30.1021 18.1231 30.1574 18.6913 30.2679C19.2595 30.3783 20.0486 30.6072 21.0587 30.9544C21.5006 31.1122 21.8636 31.4121 22.1477 31.854C22.4318 32.296 22.5739 32.801 22.5739 33.3692V34.0321Z" fill="#0040E7"/>
<path d="M18.8452 27.7466C18.348 28.2437 17.7443 28.4923 17.0341 28.4923C16.3239 28.4923 15.7202 28.2437 15.223 27.7466C14.7258 27.2494 14.4773 26.6457 14.4773 25.9355C14.4773 25.2253 14.7258 24.6216 15.223 24.1244C15.7202 23.6272 16.3239 23.3787 17.0341 23.3787C17.7443 23.3787 18.348 23.6272 18.8452 24.1244C19.3423 24.6216 19.5909 25.2253 19.5909 25.9355C19.5909 26.6457 19.3423 27.2494 18.8452 27.7466Z" fill="#0040E7"/>
<path d="M24.4205 17.7915H21.5796V6.90137H24.4205V17.7915Z" fill="#F2C500"/>
</svg>
