<svg width="46" height="46" viewBox="0 0 46 46" fill="none" xmlns="http://www.w3.org/2000/svg">
<path d="M21.5796 9.26902V2.16675H24.4205V9.26902H21.5796ZM33.7008 14.288L31.7122 12.252L36.7311 7.23304L38.7198 9.26902L33.7008 14.288ZM36.7311 24.4205V21.5796H43.8334V24.4205H36.7311ZM36.7785 38.7198L31.7595 33.7008L33.7955 31.6649L38.8145 36.6838L36.7785 38.7198ZM12.2993 14.288L7.28038 9.26902L9.26902 7.28038L14.288 12.2993L12.2993 14.288ZM11.6364 37.2046H20.1592C21.2113 37.2046 22.1057 36.8374 22.8423 36.1031C23.5788 35.3687 23.9471 34.477 23.9471 33.4279C23.9471 32.3788 23.5878 31.4755 22.8693 30.7179C22.1508 29.9603 21.2632 29.5815 20.2065 29.5815H18.1232L17.2709 27.6402C16.7929 26.5118 16.0416 25.6141 15.0171 24.9473C13.9927 24.2805 12.8658 23.9471 11.6364 23.9471C9.79513 23.9471 8.22999 24.5904 6.94104 25.8772C5.65212 27.164 5.00766 28.7265 5.00766 30.5647C5.00766 32.4029 5.65212 33.9691 6.94104 35.2633C8.22999 36.5575 9.79513 37.2046 11.6364 37.2046ZM11.6364 40.0455C9.01649 40.0455 6.78323 39.1222 4.93663 37.2757C3.09004 35.4291 2.16675 33.1958 2.16675 30.5758C2.16675 27.9559 3.09004 25.7226 4.93663 23.876C6.78323 22.0294 9.01649 21.1061 11.6364 21.1061C13.4589 21.1061 15.1219 21.6191 16.6255 22.645C18.129 23.6709 19.2438 25.0361 19.9698 26.7406C21.8674 26.7406 23.4624 27.4286 24.7547 28.8045C26.0471 30.1804 26.6933 31.8283 26.6933 33.7482C26.5354 35.5159 25.8405 37.0073 24.6084 38.2226C23.3763 39.4379 21.8932 40.0455 20.1592 40.0455H11.6364ZM26.6933 33.7482C26.5986 33.2626 26.5039 32.7891 26.4092 32.3277C26.3145 31.8664 26.2198 31.3929 26.1251 30.9073C27.7665 30.276 29.0765 29.2416 30.055 27.8042C31.0335 26.3667 31.5228 24.7675 31.5228 23.0066C31.5228 20.6348 30.6942 18.6203 29.037 16.9631C27.3798 15.306 25.3675 14.4774 23.0001 14.4774C20.8784 14.4774 19.0219 15.1509 17.4306 16.4979C15.8394 17.8449 14.9023 19.5546 14.6194 21.627C14.1143 21.5323 13.6172 21.4455 13.1279 21.3666C12.6387 21.2876 12.1415 21.2008 11.6364 21.1061C12.0784 18.3284 13.3804 16.0556 15.5427 14.288C17.7049 12.5203 20.1907 11.6364 23.0001 11.6364C26.1566 11.6364 28.8397 12.7412 31.0493 14.9508C33.2589 17.1604 34.3637 19.8489 34.3637 23.0163C34.3637 25.4676 33.6614 27.6718 32.2567 29.6289C30.852 31.5859 28.9976 32.959 26.6933 33.7482Z" fill="#0040E7"/>
<path fill-rule="evenodd" clip-rule="evenodd" d="M21.5795 9.26878V2.1665H24.4204V9.26878H21.5795ZM33.7007 14.2877L31.7121 12.2517L36.731 7.23279L38.7197 9.26878L33.7007 14.2877ZM36.731 24.4203V21.5794H43.8333V24.4203H36.731ZM36.7784 38.7195L31.7594 33.7006L33.7954 31.6646L38.8144 36.6835L36.7784 38.7195ZM12.2992 14.2877L7.28027 9.26878L9.26891 7.28014L14.2879 12.2991L12.2992 14.2877ZM26.6932 33.7479C26.6932 32.7214 26.5084 31.7727 26.139 30.9016C27.7738 30.2698 29.0791 29.2373 30.0549 27.8039C31.0334 26.3664 31.5227 24.7673 31.5227 23.0064C31.5227 20.6346 30.6941 18.6201 29.0369 16.9629C27.3797 15.3057 25.3674 14.4771 23 14.4771C20.8783 14.4771 19.0218 15.1506 17.4305 16.4977C15.8424 17.842 14.9059 19.5476 14.621 21.6143C13.6788 21.2754 12.6839 21.1059 11.6363 21.1059C12.0783 18.3281 13.3803 16.0554 15.5426 14.2877C17.7048 12.52 20.1906 11.6362 23 11.6362C26.1565 11.6362 28.8396 12.741 31.0492 14.9506C33.2588 17.1602 34.3636 19.8487 34.3636 23.016C34.3636 25.4674 33.6613 27.6716 32.2566 29.6286C30.8519 31.5857 28.9974 32.9588 26.6932 33.7479Z" fill="#F2C500"/>
</svg>
