<svg width="46" height="46" viewBox="0 0 46 46" fill="none" xmlns="http://www.w3.org/2000/svg">
<path d="M22.9527 36.5909L9.22167 29.0625V17.6989L2.16675 13.8636L22.9527 2.5L43.8334 13.8636V28.8731H40.9925V15.5208L36.6838 17.6989V29.0625L22.9527 36.5909ZM22.9527 22.0076L37.8675 13.8636L22.9527 5.86174L8.13266 13.8636L22.9527 22.0076ZM22.9527 33.3712L33.8429 27.358V19.4034L22.9527 25.2273L12.0626 19.3087V27.358L22.9527 33.3712Z" fill="#0040E7"/>
<path d="M27.1956 37.2269L26.522 39.7408L29.0359 40.4145L38.7334 34.8156L36.893 31.628L27.1956 37.2269Z" fill="#F2C500"/>
<path d="M38.8236 30.5135L40.6639 33.7011L41.9659 32.9494C42.2053 32.8111 42.3662 32.5886 42.4484 32.2817C42.5306 31.9748 42.5026 31.7017 42.3644 31.4622L41.6127 30.1603C41.4744 29.9208 41.2519 29.76 40.945 29.6777C40.6381 29.5955 40.365 29.6235 40.1255 29.7618L38.8236 30.5135Z" fill="#F2C500"/>
</svg>
