<svg width="46" height="46" viewBox="0 0 46 46" fill="none" xmlns="http://www.w3.org/2000/svg">
<path d="M18.2656 11.6363H27.7353V6.90146H18.2656V11.6363ZM6.90194 40.0454C6.14437 40.0454 5.48149 39.7613 4.91331 39.1931C4.34513 38.6249 4.06104 37.9621 4.06104 37.2045V14.4772C4.06104 13.7196 4.34513 13.0568 4.91331 12.4886C5.48149 11.9204 6.14437 11.6363 6.90194 11.6363H15.4247V6.90146C15.4247 6.14388 15.7088 5.481 16.2769 4.91282C16.8451 4.34464 17.508 4.06055 18.2656 4.06055H27.7353C28.4929 4.06055 29.1557 4.34464 29.7239 4.91282C30.2921 5.481 30.5762 6.14388 30.5762 6.90146V11.6363H39.0989C39.8565 11.6363 40.5194 11.9204 41.0875 12.4886C41.6557 13.0568 41.9398 13.7196 41.9398 14.4772V25.4147C41.4979 25.0675 41.0481 24.7676 40.5904 24.5151C40.1327 24.2626 39.6355 24.0258 39.0989 23.8049V14.4772H6.90194V37.2045H23.2372C23.3256 37.7044 23.4581 38.1923 23.6349 38.6684C23.8117 39.1445 24.0105 39.6035 24.2315 40.0454H6.90194Z" fill="#0040E7"/>
<path fill-rule="evenodd" clip-rule="evenodd" d="M33.8096 41.9016C31.3192 41.9016 29.1981 41.024 27.4462 39.2687C25.6943 37.5135 24.8184 35.3907 24.8184 32.9004C24.8184 30.41 25.696 28.2889 27.4512 26.537C29.2065 24.7851 31.3293 23.9092 33.8196 23.9092C36.3099 23.9092 38.431 24.7868 40.1829 26.542C41.9348 28.2973 42.8108 30.4201 42.8108 32.9104C42.8108 35.4008 41.9332 37.5219 40.1779 39.2738C38.4227 41.0257 36.2999 41.9016 33.8096 41.9016Z" fill="#0040E7"/>
<path d="M39.1651 30.4432L32.489 37.1667L28.4644 33.1421L29.7901 31.7689L32.489 34.4678L37.8394 29.1174L39.1651 30.4432Z" fill="#F2C500"/>
</svg>
