<svg width="37" height="39" viewBox="0 0 37 39" fill="none" xmlns="http://www.w3.org/2000/svg">
<rect x="23.5454" y="24" width="10.9091" height="5.90909" fill="#F2C500"/>
<path d="M24.6817 37.9394C23.9242 37.9394 23.2613 37.6553 22.6931 37.0871C22.1249 36.5189 21.8408 35.856 21.8408 35.0985V22.5038C21.8408 21.4937 21.9671 20.7282 22.2196 20.2074C22.4721 19.6865 22.8036 19.2052 23.2139 18.7632C23.8137 18.1319 24.2082 17.6427 24.3976 17.2954C24.587 16.9482 24.6817 16.5694 24.6817 16.1591V14.7386H24.2082C23.8058 14.7386 23.4684 14.6017 23.1962 14.3279C22.9239 14.054 22.7878 13.7147 22.7878 13.3099C22.7878 12.905 22.9298 12.5685 23.2139 12.3002C23.498 12.0319 23.8295 11.8977 24.2082 11.8977H33.6779C34.0804 11.8977 34.4178 12.0346 34.69 12.3085C34.9623 12.5823 35.0984 12.9216 35.0984 13.3264C35.0984 13.7313 34.9623 14.0678 34.69 14.3362C34.4178 14.6045 34.0804 14.7386 33.6779 14.7386H33.2045V16.1591C33.2045 16.5379 33.3228 16.9324 33.5596 17.3428C33.7963 17.7531 34.2146 18.274 34.8143 18.9053C35.2247 19.3472 35.5324 19.8049 35.7376 20.2784C35.9428 20.7519 36.0454 21.4937 36.0454 22.5038V35.0985C36.0454 35.856 35.7613 36.5189 35.1931 37.0871C34.6249 37.6553 33.962 37.9394 33.2045 37.9394H24.6817ZM24.6817 23.7348H33.2045V22.5038C33.2045 21.9356 33.0466 21.4305 32.731 20.9886C32.4153 20.5467 32.0681 20.089 31.6893 19.6155C31.2158 19.0158 30.8765 18.4634 30.6713 17.9583C30.4661 17.4533 30.3635 16.8535 30.3635 16.1591V14.7386H27.5226V16.1591C27.5226 16.8219 27.4279 17.4059 27.2385 17.911C27.0492 18.416 26.7177 18.9684 26.2442 19.5682C25.8654 20.0416 25.5103 20.5072 25.1789 20.9649C24.8474 21.4226 24.6817 21.9356 24.6817 22.5038V23.7348ZM24.6817 29.4166H33.2045V25.6288H24.6817V29.4166ZM24.6817 35.0985H33.2045V31.3106H24.6817V35.0985Z" fill="#0040E7"/>
<rect x="4" y="20.3635" width="10.9091" height="5.90909" fill="#F2C500"/>
<path fill-rule="evenodd" clip-rule="evenodd" d="M10.9508 38.8863L8.10994 36.7556V27.9962H5.26903C4.51145 27.9962 3.84857 27.7121 3.28039 27.1439C2.71221 26.5757 2.42812 25.9128 2.42812 25.1552V10.0037H1.95463C1.55217 10.0037 1.21481 9.86681 0.94256 9.59298C0.670307 9.31912 0.53418 8.97979 0.53418 8.57499C0.53418 8.17016 0.670307 7.83359 0.94256 7.56528C1.21481 7.29697 1.55217 7.16282 1.95463 7.16282H8.10994V2.90146H6.68948C6.28702 2.90146 5.94966 2.76454 5.67741 2.49071C5.40515 2.21684 5.26903 1.87751 5.26903 1.47272C5.26903 1.06789 5.40515 0.731317 5.67741 0.463009C5.94966 0.194701 6.28702 0.0605469 6.68948 0.0605469H12.3713C12.7738 0.0605469 13.1111 0.197462 13.3834 0.471294C13.6556 0.745158 13.7918 1.08449 13.7918 1.48929C13.7918 1.89412 13.6556 2.23069 13.3834 2.49899C13.1111 2.7673 12.7738 2.90146 12.3713 2.90146H10.9508V7.16282H17.1061C17.5086 7.16282 17.846 7.29973 18.1182 7.57357C18.3905 7.84743 18.5266 8.18676 18.5266 8.59156C18.5266 8.99639 18.3905 9.33296 18.1182 9.60127C17.846 9.86957 17.5086 10.0037 17.1061 10.0037H16.6327V25.1552C16.6327 25.9128 16.3486 26.5757 15.7804 27.1439C15.2122 27.7121 14.5493 27.9962 13.7918 27.9962H10.9508V38.8863ZM5.26898 25.1553H13.7917V21.3674H10.0038C9.7513 21.3674 9.53034 21.2727 9.34095 21.0833C9.15155 20.8939 9.05686 20.6729 9.05686 20.4204C9.05686 20.1679 9.15155 19.9469 9.34095 19.7575C9.53034 19.5681 9.7513 19.4734 10.0038 19.4734H13.7917V15.6856H10.0038C9.7513 15.6856 9.53034 15.5909 9.34095 15.4015C9.15155 15.2121 9.05686 14.9911 9.05686 14.7386C9.05686 14.4861 9.15155 14.2651 9.34095 14.0757C9.53034 13.8863 9.7513 13.7916 10.0038 13.7916H13.7917V10.0038H5.26898V25.1553Z" fill="#0040E7"/>
</svg>
