<svg width="46" height="46" viewBox="0 0 46 46" fill="none" xmlns="http://www.w3.org/2000/svg">
<path fill-rule="evenodd" clip-rule="evenodd" d="M6.90194 38.1514H39.0989C39.8802 38.1514 40.549 37.8732 41.1053 37.3169C41.6617 36.7606 41.9398 36.0918 41.9398 35.3105V10.6893C41.9398 9.90805 41.6617 9.23925 41.1053 8.68291C40.549 8.12656 39.8802 7.84839 39.0989 7.84839H6.90194C6.12069 7.84839 5.4519 8.12656 4.89555 8.68291C4.33921 9.23925 4.06104 9.90805 4.06104 10.6893V17.9336C5.22896 18.1546 6.19961 18.7385 6.97297 19.6855C7.74633 20.6325 8.13301 21.7373 8.13301 22.9999C8.13301 24.2625 7.74633 25.3594 6.97297 26.2906C6.19961 27.2218 5.22896 27.8137 4.06104 28.0662V35.3105C4.06104 36.0918 4.33921 36.7606 4.89555 37.3169C5.4519 37.8732 6.12069 38.1514 6.90194 38.1514ZM39.0989 10.6893V35.3105H6.90194V30.1495C8.13301 29.3288 9.11943 28.3029 9.86122 27.0719C10.603 25.8408 10.9739 24.4835 10.9739 22.9999C10.9739 21.5163 10.603 20.159 9.86122 18.9279C9.11943 17.6969 8.13301 16.671 6.90194 15.8503V10.6893H39.0989Z" fill="#0040E7"/>
<path d="M16.7501 30.339L34.1743 25.5568C34.7109 25.399 35.1055 25.1464 35.358 24.7992C35.6106 24.452 35.6579 24.0101 35.5001 23.4734C35.3422 22.9368 35.0582 22.5659 34.6478 22.3608C34.2374 22.1556 33.783 22.1182 33.2844 22.2487L28.3978 23.5208L20.538 15.8503L18.0758 16.4185L22.9527 24.9886L17.697 26.4564L15.2349 24.4204L13.8618 24.8939L16.7501 30.339Z" fill="#F2C500"/>
</svg>
