<svg width="46" height="46" viewBox="0 0 46 46" fill="none" xmlns="http://www.w3.org/2000/svg">
<path d="M27.0723 42.7915L12.3469 38.5775V41.2764H2.16699V22.6211H16.7977L28.8715 27.1665C29.7238 27.4822 30.4419 27.9951 31.0259 28.7054C31.6099 29.4156 31.9018 30.4336 31.9018 31.7594H37.2996C38.6253 31.7594 39.7301 32.2328 40.614 33.1798C41.4978 34.1268 41.9397 35.4052 41.9397 37.015V38.2461L27.0723 42.7915ZM5.0079 38.4355H9.45866V25.462H5.0079V38.4355ZM26.8829 39.8559L39.0041 36.1628C38.8147 35.563 38.578 35.1527 38.2939 34.9317C38.0098 34.7107 37.6784 34.6003 37.2996 34.6003H27.4984C26.5515 34.6003 25.6755 34.5371 24.8706 34.4109C24.0657 34.2846 23.3002 34.111 22.5742 33.89L18.739 32.7063L19.7806 29.9601L23.2371 31.0965C24.0262 31.349 24.7759 31.5226 25.4861 31.6173C26.1963 31.712 27.3248 31.7594 28.8715 31.7594C28.8715 31.3806 28.8005 31.0097 28.6585 30.6467C28.5164 30.2837 28.2718 30.0232 27.9246 29.8654L16.3242 25.462H12.3469V35.5946L26.8829 39.8559Z" fill="#0040E7"/>
<path fill-rule="evenodd" clip-rule="evenodd" d="M30.8598 24.0416C29.3762 22.7158 27.9637 21.4216 26.6221 20.159C25.2806 18.8964 24.1058 17.6662 23.0977 16.4684C22.0897 15.2706 21.2848 14.1112 20.683 12.9902C20.0812 11.8692 19.7803 10.7866 19.7803 9.74234C19.7803 8.10856 20.3361 6.73736 21.4479 5.62874C22.5596 4.52013 23.9346 3.96582 25.5729 3.96582C26.5091 3.96582 27.4428 4.22624 28.374 4.74707C29.3052 5.2679 30.1338 5.97024 30.8598 6.85408C31.5858 5.97024 32.4144 5.2679 33.3456 4.74707C34.2768 4.22624 35.2105 3.96582 36.1467 3.96582C37.785 3.96582 39.1601 4.52013 40.2718 5.62874C41.3835 6.73736 41.9394 8.10856 41.9394 9.74234C41.9394 10.7866 41.6385 11.8692 41.0367 12.9902C40.4348 14.1112 39.6299 15.2706 38.6219 16.4684C37.6138 17.6662 36.4363 18.8991 35.0891 20.1671C33.742 21.4351 32.3323 22.7266 30.8598 24.0416ZM36.5416 14.4772C34.8371 16.3396 32.9432 18.2177 30.8598 20.1117C28.7765 18.2177 26.8825 16.3396 25.178 14.4772C23.4735 12.6148 22.6212 11.0365 22.6212 9.74234C22.6212 8.87671 22.8951 8.17103 23.443 7.62529C23.9908 7.07958 24.6992 6.80673 25.5682 6.80673C26.0972 6.80673 26.6221 6.93299 27.143 7.18552C27.6638 7.43804 28.1925 7.91153 28.7291 8.60597L30.8598 11.2101L32.9905 8.60597C33.5271 7.91153 34.0558 7.43804 34.5767 7.18552C35.0975 6.93299 35.6224 6.80673 36.1514 6.80673C37.0204 6.80673 37.7288 7.07958 38.2767 7.62529C38.8245 8.17103 39.0985 8.87671 39.0985 9.74234C39.0985 11.0365 38.2462 12.6148 36.5416 14.4772Z" fill="#F2C500"/>
</svg>
