<svg width="46" height="46" viewBox="0 0 46 46" fill="none" xmlns="http://www.w3.org/2000/svg">
<path d="M23.0478 41.9394C20.4594 41.9394 18.0131 41.4422 15.7088 40.4479C13.4045 39.4536 11.3922 38.1042 9.67185 36.3996C7.95152 34.6951 6.59419 32.6906 5.59988 30.3863C4.60556 28.0821 4.1084 25.6357 4.1084 23.0473C4.1084 18.06 5.78927 13.767 9.15101 10.1685C12.5128 6.57006 16.6873 4.58142 21.6747 4.20264V9.03218C18.0446 9.3794 15.0143 10.8867 12.5838 13.554C10.1532 16.2213 8.93794 19.3857 8.93794 23.0473C8.93794 26.9615 10.311 30.2838 13.0573 33.0142C15.8035 35.7446 19.1337 37.1098 23.0478 37.1098C25.3205 37.1098 27.467 36.5969 29.4872 35.571C31.5074 34.5451 33.2277 33.101 34.6482 31.2386L38.8148 33.6534C36.984 36.2733 34.6876 38.3093 31.9256 39.7613C29.1636 41.2134 26.2044 41.9394 23.0478 41.9394Z" fill="#0040E7"/>
<path fill-rule="evenodd" clip-rule="evenodd" d="M18.7868 16.1819H23.7695C24.9413 16.1819 25.9529 16.5504 26.7896 17.2728H29.364V20.0001H28.2887C28.3177 20.2164 28.3322 20.4392 28.3322 20.6682C28.3322 20.907 28.3164 21.1388 28.2849 21.3637H29.364V24.091H26.7577C25.9272 24.7954 24.9265 25.1546 23.7695 25.1546H21.4213V29.5455H18.7868V24.091H17.0913V21.3637H18.7868V20.0001H17.0913V17.2728H18.7868V16.1819ZM21.4213 22.6919H23.7695C24.8958 22.6919 25.7168 21.8137 25.7168 20.6682C25.7168 19.5037 24.8958 18.6446 23.7695 18.6446H21.4213V22.6919Z" fill="#F2C500"/>
<path d="M36.0213 28.7765L40.188 31.0966C40.7877 29.7392 41.2375 28.374 41.5374 27.0009C41.8373 25.6278 41.9872 24.231 41.9872 22.8106C41.9872 17.8863 40.3142 13.6329 36.9683 10.0502C33.6223 6.46746 29.4714 4.5025 24.5156 4.15527V8.98482C28.1141 9.30048 31.1207 10.7998 33.5355 13.4829C35.9503 16.166 37.1577 19.3384 37.1577 23C37.1577 23.9469 37.063 24.9018 36.8736 25.8646C36.6842 26.8273 36.4001 27.7979 36.0213 28.7765Z" fill="#F2C500"/>
</svg>
