<svg width="46" height="46" viewBox="0 0 46 46" fill="none" xmlns="http://www.w3.org/2000/svg">
<path d="M19.8281 37.1098V26.3616L22.5269 18.4071C22.5901 18.1861 22.7163 17.9967 22.9057 17.8389C23.0951 17.6811 23.3634 17.6022 23.7107 17.6022H38.0572C38.4045 17.6022 38.6649 17.6732 38.8385 17.8152C39.0121 17.9573 39.1463 18.1546 39.241 18.4071L41.9398 26.3616V37.1098C41.9398 37.4036 41.8397 37.6506 41.6394 37.8509C41.439 38.0513 41.192 38.1514 40.8982 38.1514H39.8444C39.5684 38.1514 39.3278 38.0513 39.1226 37.8509C38.9174 37.6506 38.8148 37.4036 38.8148 37.1098V34.9791H22.9531V37.1098C22.9531 37.4036 22.8529 37.6506 22.6526 37.8509C22.4523 38.0513 22.2052 38.1514 21.9114 38.1514H20.8576C20.5816 38.1514 20.341 38.0513 20.1358 37.8509C19.9307 37.6506 19.8281 37.4036 19.8281 37.1098ZM22.3376 24.9412H39.4304L37.6311 19.4961H24.1368L22.3376 24.9412ZM8.03831 38.1514V37.1571L10.7372 34.4582C8.93793 34.4582 7.37543 33.9137 6.04967 32.8247C4.72391 31.7357 4.06104 30.3389 4.06104 28.6344V13.1041C4.06104 11.0207 4.88174 9.62396 6.52316 8.91373C8.16457 8.2035 11.4158 7.84839 16.2769 7.84839C20.7908 7.84839 23.9553 8.23507 25.7703 9.00843C27.5853 9.78179 28.4929 11.147 28.4929 13.1041V16.1817H25.6519V12.5359H6.90194V25.2726H18.4076V38.1514H8.03831ZM21.722 33.0851H40.0459V26.8351H21.722V33.0851Z" fill="#0040E7"/>
<path d="M26.2096 31.3233C25.8557 31.6772 25.4172 31.8541 24.894 31.8541C24.3708 31.8541 23.9322 31.6772 23.5782 31.3233C23.2243 30.9693 23.0474 30.5307 23.0474 30.0075C23.0474 29.4843 23.2243 29.0458 23.5782 28.6918C23.9322 28.3379 24.3708 28.1609 24.894 28.1609C25.4172 28.1609 25.8557 28.3379 26.2096 28.6918C26.5636 29.0458 26.7406 29.4843 26.7406 30.0075C26.7406 30.5307 26.5636 30.9693 26.2096 31.3233Z" fill="#F2C500"/>
<path d="M38.1888 31.3233C37.8349 31.6772 37.3963 31.8541 36.8731 31.8541C36.3499 31.8541 35.9114 31.6772 35.5575 31.3233C35.2035 30.9693 35.0265 30.5307 35.0265 30.0075C35.0265 29.4843 35.2035 29.0458 35.5575 28.6918C35.9114 28.3379 36.3499 28.1609 36.8731 28.1609C37.3963 28.1609 37.8349 28.3379 38.1888 28.6918C38.5428 29.0458 38.7197 29.4843 38.7197 30.0075C38.7197 30.5307 38.5428 30.9693 38.1888 31.3233Z" fill="#F2C500"/>
<path d="M10.632 29.9502C10.2781 30.3041 9.83952 30.481 9.31632 30.481C8.79312 30.481 8.35454 30.3041 8.0006 29.9502C7.64668 29.5962 7.46973 29.1576 7.46973 28.6344C7.46973 28.1112 7.64668 27.6727 8.0006 27.3187C8.35454 26.9648 8.79312 26.7878 9.31632 26.7878C9.83952 26.7878 10.2781 26.9648 10.632 27.3187C10.986 27.6727 11.1629 28.1112 11.1629 28.6344C11.1629 29.1576 10.986 29.5962 10.632 29.9502Z" fill="#F2C500"/>
</svg>
